PathFileType	4	(X/Y/Z)	./resultDataOpenSim/trcMotMarkerGrf/sub10/qtm-03-05.trc
DataRate	CameraRate	NumFrames	NumMarkers	Units	OrigDataRate	OrigDataStartFrame	OrigNumFrames
250.000000	250.000000	13	24	m	250.000000	63	502
Frame#	Time	L.Toe.Tip			R.Toe.Tip			L.Ankle.Lat			R.Ankle.Lat			L.Ankle.Med			R.Ankle.Med			L.Heel			R.Heel			L.Knee.Lat			R.Knee.Lat			L.Knee.Med			R.Knee.Med			L.Thigh.Upper			R.Thigh.Upper			L.ASIS			R.ASIS			V.Sacral			L.Acromium			R.Acromium			C7			L.Elbow			R.Elbow			L.Wrist.Lat			R.Wrist.Lat
		X1	Y1	Z1	X2	Y2	Z2	X3	Y3	Z3	X4	Y4	Z4	X5	Y5	Z5	X6	Y6	Z6	X7	Y7	Z7	X8	Y8	Z8	X9	Y9	Z9	X10	Y10	Z10	X11	Y11	Z11	X12	Y12	Z12	X13	Y13	Z13	X14	Y14	Z14	X15	Y15	Z15	X16	Y16	Z16	X17	Y17	Z17	X18	Y18	Z18	X19	Y19	Z19	X20	Y20	Z20	X21	Y21	Z21	X22	Y22	Z22	X23	Y23	Z23	X24	Y24	Z24

63	0.248	-1.4695239	0.040639608	-0.13320521	-0.69007129	0.046613496	0.059851498	-1.491298	0.16848051	-0.18188705	-0.83187141	0.05325316	0.088038607	-1.4675905	0.17525634	-0.10205967	-0.81170032	0.083167534	0.0063008322	-1.5457898	0.21151696	-0.13923159	-0.87694325	0.027743543	0.035428768	-1.2022456	0.4274608	-0.19004567	-0.85320411	0.45380209	0.11599751	-1.1933854	0.39119909	-0.075356626	-0.85243714	0.46172829	-0.010685916	-1.0731538	0.79033835	-0.22218359	-0.99364782	0.84930222	0.15878806	-0.98913131	0.89203983	-0.1685646	-0.94147022	0.92641383	0.065683924	-1.1678824	0.92796411	-0.022037697	-1.0153335	1.3881107	-0.18908861	-1.0554082	1.3758271	0.13091713	-1.1159254	1.4072164	-0.041656572	-1.0507713	1.0380372	-0.2588327	-1.2162545	1.0723721	0.14678173	-0.83045225	0.94931707	-0.17489079	-1.220217	0.86388874	0.26715518
64	0.252	-1.466839	0.042344532	-0.13307671	-0.68944083	0.04573934	0.059938283	-1.482812	0.17123232	-0.18175455	-0.83119131	0.053278164	0.087794203	-1.4592322	0.17724964	-0.10184277	-0.8110529	0.082774355	0.0059283453	-1.5356704	0.21624114	-0.13894483	-0.87667215	0.027887833	0.035311311	-1.1910715	0.42591099	-0.18983042	-0.84896601	0.45358161	0.11612403	-1.1815221	0.38864365	-0.075361114	-0.84893573	0.46150888	-0.010593865	-1.0659328	0.78969357	-0.22105891	-0.9872212	0.85060747	0.15960413	-0.98270701	0.89228409	-0.16697867	-0.93521205	0.927456	0.066510321	-1.1592125	0.92908328	-0.019215153	-1.0096834	1.3888008	-0.18764762	-1.0497202	1.3763785	0.13210498	-1.1101857	1.4076414	-0.040449021	-1.0460246	1.039289	-0.25842732	-1.2097526	1.072726	0.14785743	-0.82642966	0.94877059	-0.17436982	-1.2152279	0.86436349	0.26845627
65	0.256	-1.4643221	0.044084689	-0.13284023	-0.68884218	0.044977757	0.059810095	-1.4740233	0.17418298	-0.18155318	-0.83058295	0.0532486	0.087505856	-1.4505716	0.17929587	-0.10163239	-0.81045545	0.082396074	0.0055348734	-1.5240672	0.22110544	-0.13879638	-0.8764418	0.028019279	0.035234561	-1.1797818	0.42438038	-0.18956409	-0.84489695	0.4532772	0.1162148	-1.1695122	0.3861184	-0.07530023	-0.8455255	0.46111533	-0.010575221	-1.0587254	0.78909745	-0.2199682	-0.98073525	0.8517838	0.16043238	-0.97636955	0.89252594	-0.16551709	-0.9287815	0.92843273	0.06736254	-1.1507914	0.93011856	-0.016333394	-1.0040964	1.3894529	-0.1862901	-1.0439027	1.3769179	0.13325851	-1.1044793	1.4080536	-0.03922395	-1.0413352	1.0405331	-0.25811375	-1.203234	1.0730851	0.14894463	-0.82268927	0.94808377	-0.17404098	-1.2097714	0.86481335	0.26974938
66	0.26	-1.4616417	0.04591888	-0.1326955	-0.68830488	0.044328833	0.059434078	-1.4649139	0.17732016	-0.18137318	-0.82995318	0.053192945	0.087211067	-1.4415322	0.18138708	-0.10146891	-0.80992187	0.082044523	0.0051216525	-1.5115235	0.22601706	-0.13862387	-0.87626958	0.028137806	0.035208538	-1.1683679	0.42288795	-0.18924203	-0.84099701	0.45292825	0.11625431	-1.1574023	0.38367369	-0.075163755	-0.84220292	0.46057125	-0.010634731	-1.0515349	0.78856276	-0.21892233	-0.97429705	0.85282446	0.16125004	-0.97014341	0.89276368	-0.16420339	-0.92254793	0.92944896	0.068343379	-1.1432194	0.93100986	-0.013937906	-0.99852659	1.3900736	-0.18501021	-1.0379327	1.3774461	0.13437594	-1.0988037	1.40847	-0.037992892	-1.0367093	1.0417538	-0.25787159	-1.1966953	1.0734594	0.15004831	-0.81909815	0.94727546	-0.17386267	-1.2037901	0.86524348	0.27104269
67	0.264	-1.4583642	0.047929501	-0.13289191	-0.68784902	0.04379777	0.058891917	-1.4554936	0.18057621	-0.18124627	-0.82925786	0.053145578	0.086924073	-1.432138	0.18349975	-0.10134119	-0.80946486	0.081724993	0.004700144	-1.4989015	0.23081603	-0.13820137	-0.87615625	0.028239807	0.035221262	-1.1568379	0.42145476	-0.18886163	-0.83727798	0.45257111	0.11623168	-1.1451995	0.38136642	-0.074947364	-0.83897182	0.45990916	-0.010772357	-1.0443779	0.78809709	-0.2179202	-0.96801036	0.85373135	0.16203521	-0.96406979	0.89299077	-0.16306343	-0.91691543	0.93065706	0.069596565	-1.1366273	0.93174911	-0.012245304	-0.99295703	1.3906706	-0.18380799	-1.0318156	1.3779604	0.1354615	-1.0931594	1.4089099	-0.036763491	-1.0321258	1.0429373	-0.25763462	-1.1901362	1.0738502	0.15117247	-0.81546709	0.94637347	-0.17376171	-1.1974363	0.86564502	0.27229926
68	0.268	-1.4543167	0.050120904	-0.13352493	-0.68747116	0.043371317	0.058327553	-1.44593	0.18384669	-0.18107454	-0.82857076	0.053103291	0.08663833	-1.4224947	0.18557755	-0.10118619	-0.80908454	0.081438127	0.0042855298	-1.4865697	0.23535475	-0.13750016	-0.87608748	0.028322691	0.035248172	-1.1452167	0.42011383	-0.18842834	-0.83374171	0.45222909	0.11613421	-1.1329226	0.37925613	-0.074646732	-0.83584684	0.45916969	-0.010967249	-1.0372762	0.78770796	-0.21693632	-0.96189822	0.85451808	0.16278884	-0.95816759	0.89322103	-0.1620938	-0.91190142	0.93206836	0.071107982	-1.1307161	0.93237373	-0.011119222	-0.98739071	1.3912515	-0.18268751	-1.0255635	1.378458	0.13652491	-1.0875457	1.4093955	-0.035532152	-1.0275678	1.0440864	-0.25735621	-1.183557	1.074253	0.15231998	-0.81174128	0.94538954	-0.1737105	-1.1908749	0.86600348	0.27348999
69	0.272	-1.4496361	0.0524073	-0.13446804	-0.68715458	0.043013552	0.057865335	-1.4363959	0.18704032	-0.18074437	-0.8279555	0.053054055	0.086344147	-1.412642	0.18756474	-0.10095524	-0.8087611	0.08118163	0.0038969352	-1.4744819	0.23955696	-0.13666608	-0.87604506	0.028385589	0.035267306	-1.1335224	0.41889382	-0.18795482	-0.83034103	0.45191104	0.11598384	-1.1206259	0.37740078	-0.074257731	-0.83286445	0.45839242	-0.011167837	-1.030241	0.78740371	-0.21594081	-0.95593633	0.8552108	0.1635289	-0.95238373	0.89350636	-0.16123391	-0.90713061	0.93348235	0.072620683	-1.1250915	0.93293085	-0.010279423	-0.98183582	1.3918211	-0.18164871	-1.0191863	1.3789362	0.13757421	-1.0819607	1.409943	-0.034293853	-1.0230401	1.0452197	-0.25704067	-1.1769605	1.0746679	0.15349551	-0.80798155	0.94432382	-0.17373046	-1.1842292	0.86630197	0.27461431
70	0.276	-1.4444878	0.054688882	-0.13547809	-0.686884	0.042691724	0.057557114	-1.4268388	0.19012209	-0.18027323	-0.82738065	0.052990839	0.086037605	-1.402542	0.18944681	-0.1006431	-0.80845849	0.080953057	0.0035525616	-1.4625885	0.24341738	-0.13583798	-0.87601574	0.028429311	0.035270308	-1.1217345	0.41780531	-0.18746432	-0.82697399	0.45163498	0.1158678	-1.108333	0.37585631	-0.073784656	-0.83006339	0.45761544	-0.011309567	-1.0232713	0.78719102	-0.21492995	-0.95010503	0.85583917	0.16427416	-0.94659994	0.89391984	-0.160387	-0.90225138	0.93467445	0.073865757	-1.1195578	0.93344181	-0.0095508083	-0.97629693	1.3923818	-0.18067912	-1.0126954	1.3794055	0.13860694	-1.0763955	1.4105623	-0.033046667	-1.0185566	1.04635	-0.25670777	-1.1703511	1.0751001	0.1547032	-0.80426509	0.94317791	-0.17385702	-1.1776117	0.86652103	0.2756777
71	0.28	-1.4388176	0.056932938	-0.1363557	-0.68664434	0.042394883	0.057371513	-1.4171022	0.19310033	-0.17975832	-0.82679831	0.052896934	0.08572995	-1.3922358	0.19126763	-0.10026607	-0.80814303	0.08075159	0.0032537547	-1.4509162	0.24696327	-0.13503825	-0.8759926	0.028456324	0.035261927	-1.1097503	0.41684229	-0.18700898	-0.82358132	0.4514423	0.11587447	-1.0960062	0.37466339	-0.073238646	-0.82744822	0.45689094	-0.011354994	-1.0163645	0.78707019	-0.2139252	-0.94439197	0.85642542	0.16503834	-0.94071459	0.89452221	-0.1594754	-0.89719227	0.93560146	0.074811818	-1.1141844	0.93388762	-0.0090145434	-0.97077322	1.3929376	-0.17976464	-1.0060958	1.3798925	0.13961328	-1.0708283	1.4112675	-0.03178543	-1.0141262	1.0474764	-0.25636367	-1.1637284	1.0755542	0.15594183	-0.80063827	0.94195839	-0.17411368	-1.1710654	0.86664986	0.27667105
72	0.284	-1.4323897	0.059187001	-0.13702126	-0.68641496	0.042126455	0.057223611	-1.4071323	0.19598093	-0.17925412	-0.82628334	0.052762926	0.085461021	-1.3818485	0.19311225	-0.099834283	-0.80780615	0.080578716	0.0029849569	-1.4395018	0.25022144	-0.13415481	-0.8759727	0.028470438	0.03525074	-1.0973804	0.41598677	-0.18667633	-0.82024544	0.45137402	0.11600355	-1.083632	0.37382781	-0.072624581	-0.82500385	0.45629871	-0.011312618	-1.00952	0.78703674	-0.21294688	-0.93879156	0.85697762	0.16582486	-0.93473334	0.89532873	-0.15849614	-0.89201147	0.93636197	0.075598432	-1.10916	0.93422638	-0.0089218097	-0.96526078	1.3934963	-0.17890551	-0.99940174	1.3804211	0.1405898	-1.0652352	1.4120774	-0.03050204	-1.0097508	1.0485942	-0.25600661	-1.1570834	1.0760289	0.15720627	-0.79710441	0.9406751	-0.17450063	-1.1644607	0.86671376	0.27758215
73	0.288	-1.4249776	0.061526462	-0.13748213	-0.68617923	0.041891935	0.057037518	-1.3969431	0.19875482	-0.17875369	-0.82608203	0.052614706	0.085290198	-1.3714495	0.19506431	-0.099333201	-0.80746829	0.080437307	0.0027343034	-1.4283804	0.25322223	-0.13305315	-0.87595477	0.028477737	0.035240891	-1.0845179	0.41522499	-0.18651981	-0.81712344	0.45144538	0.11619265	-1.0712726	0.37332745	-0.071945208	-0.82272096	0.45591845	-0.011213411	-1.0027326	0.78708819	-0.21200141	-0.93331544	0.85749225	0.16662139	-0.92879801	0.89628652	-0.1575518	-0.88673528	0.9370484	0.076356651	-1.10453	0.93443708	-0.0093102624	-0.95975585	1.3940662	-0.17810859	-0.99266617	1.3810011	0.14154247	-1.0596055	1.4130052	-0.02919251	-1.005429	1.0497023	-0.2556356	-1.1504038	1.0765203	0.15849427	-0.79362487	0.93934103	-0.17499616	-1.1575835	0.86676531	0.2784166
74	0.292	-1.4164941	0.063989183	-0.13777804	-0.68593868	0.041692806	0.056798182	-1.3865058	0.20142464	-0.17822323	-0.82638741	0.052496125	0.085247285	-1.3610476	0.19717373	-0.098726998	-0.80715494	0.080327028	0.002502846	-1.4175706	0.25602175	-0.13175627	-0.87593896	0.028485216	0.035231789	-1.0713635	0.41457261	-0.18645852	-0.81431523	0.45164307	0.11639484	-1.0589919	0.37313383	-0.071207239	-0.82057594	0.45577633	-0.011085366	-0.99599889	0.78722543	-0.21109105	-0.92799147	0.85796301	0.16740485	-0.92308822	0.89731268	-0.15678237	-0.88139988	0.93770032	0.077164097	-1.1000529	0.93455054	-0.0097090785	-0.95426099	1.3946527	-0.17737294	-0.98595075	1.381633	0.1424729	-1.0539436	1.414044	-0.027864342	-1.0011629	1.0508039	-0.25525246	-1.1436821	1.0770263	0.15980952	-0.79013129	0.93797889	-0.17556135	-1.1503479	0.86683786	0.27919251
75	0.296	-1.4070426	0.06653492	-0.13793718	-0.68571111	0.04152428	0.056547418	-1.3757436	0.20401776	-0.17763086	-0.82702474	0.052430364	0.085289411	-1.3505813	0.19945396	-0.098011147	-0.80687152	0.080241901	0.0022946793	-1.4069718	0.25869731	-0.13047187	-0.87592733	0.028495337	0.035222564	-1.0583163	0.4140713	-0.18632905	-0.81182761	0.45191613	0.11658207	-1.0468001	0.37321314	-0.070408263	-0.81851957	0.45583104	-0.010956126	-0.98932744	0.78745079	-0.21021788	-0.92284955	0.85838558	0.16815997	-0.91765662	0.89837789	-0.15623456	-0.8760851	0.93833911	0.078064201	-1.0954295	0.93462696	-0.0094642943	-0.94878973	1.3952587	-0.17669107	-0.97928396	1.3823145	0.14337846	-1.0482607	1.415164	-0.026541502	-0.99696026	1.0519044	-0.25486397	-1.136911	1.0775474	0.16115548	-0.78657567	0.93661645	-0.17615693	-1.1428266	0.86693468	0.27992442
